<svg width="27" height="27" viewBox="0 0 27 27" fill="none" xmlns="http://www.w3.org/2000/svg">
<circle opacity="0.1" cx="13.5441" cy="13.5946" r="12.8507" fill="black"/>
<path d="M14.7739 13.955C15.4606 14.335 15.8039 14.9016 15.8039 15.655C15.8039 16.295 15.5806 16.8016 15.1339 17.175C14.6873 17.5416 14.0939 17.725 13.3539 17.725C12.6139 17.725 12.0173 17.5416 11.5639 17.175C11.1173 16.8016 10.8939 16.295 10.8939 15.655C10.8939 15.295 10.9839 14.9683 11.1639 14.675C11.3439 14.375 11.5973 14.135 11.9239 13.955C11.3973 13.6083 11.1339 13.115 11.1339 12.475C11.1339 11.835 11.3473 11.3416 11.7739 10.995C12.2006 10.6416 12.7273 10.465 13.3539 10.465C13.9739 10.465 14.4973 10.6416 14.9239 10.995C15.3573 11.3416 15.5739 11.835 15.5739 12.475C15.5739 13.115 15.3073 13.6083 14.7739 13.955ZM13.3539 11.555C13.0406 11.555 12.7839 11.6383 12.5839 11.805C12.3839 11.9716 12.2839 12.2116 12.2839 12.525C12.2839 12.825 12.3839 13.0616 12.5839 13.235C12.7906 13.4083 13.0473 13.495 13.3539 13.495C13.6539 13.495 13.9073 13.4083 14.1139 13.235C14.3206 13.0616 14.4239 12.825 14.4239 12.525C14.4239 12.2116 14.3206 11.9716 14.1139 11.805C13.9139 11.6383 13.6606 11.555 13.3539 11.555ZM13.3539 16.635C13.7406 16.635 14.0539 16.5416 14.2939 16.355C14.5339 16.1616 14.6539 15.8916 14.6539 15.545C14.6539 15.1983 14.5339 14.9316 14.2939 14.745C14.0539 14.5516 13.7406 14.455 13.3539 14.455C12.9606 14.455 12.6439 14.5516 12.4039 14.745C12.1639 14.9316 12.0439 15.1983 12.0439 15.545C12.0439 15.8916 12.1639 16.1616 12.4039 16.355C12.6439 16.5416 12.9606 16.635 13.3539 16.635Z" fill="#1E1E2D"/>
</svg>
