<svg width="23" height="22" viewBox="0 0 23 22" fill="none" xmlns="http://www.w3.org/2000/svg">
<path d="M14.4175 21.6997H8.41748C2.98748 21.6997 0.66748 19.3797 0.66748 13.9497V7.94971C0.66748 2.51971 2.98748 0.199707 8.41748 0.199707H14.4175C19.8475 0.199707 22.1675 2.51971 22.1675 7.94971V13.9497C22.1675 19.3797 19.8475 21.6997 14.4175 21.6997ZM8.41748 1.69971C3.80748 1.69971 2.16748 3.33971 2.16748 7.94971V13.9497C2.16748 18.5597 3.80748 20.1997 8.41748 20.1997H14.4175C19.0275 20.1997 20.6675 18.5597 20.6675 13.9497V7.94971C20.6675 3.33971 19.0275 1.69971 14.4175 1.69971H8.41748Z" fill="#6F7181"/>
<path d="M6.7477 14.1897C6.5877 14.1897 6.4277 14.1397 6.2877 14.0297C6.20956 13.97 6.14395 13.8954 6.09463 13.8103C6.0453 13.7252 6.01322 13.6312 6.00022 13.5337C5.98722 13.4362 5.99355 13.3371 6.01886 13.242C6.04416 13.147 6.08794 13.0578 6.1477 12.9797L8.5277 9.8897C8.8177 9.5197 9.2277 9.2797 9.6977 9.2197C10.1577 9.1597 10.6277 9.2897 10.9977 9.5797L12.8277 11.0197C12.8977 11.0797 12.9677 11.0797 13.0177 11.0697C13.0577 11.0697 13.1277 11.0497 13.1877 10.9697L15.4977 7.9897C15.5574 7.91131 15.6322 7.84565 15.7177 7.79656C15.8031 7.74747 15.8975 7.71594 15.9954 7.70383C16.0932 7.69172 16.1924 7.69927 16.2873 7.72604C16.3821 7.75281 16.4706 7.79825 16.5477 7.8597C16.8777 8.1097 16.9377 8.5797 16.6777 8.9097L14.3677 11.8897C14.0777 12.2597 13.6677 12.4997 13.1977 12.5497C12.7277 12.6097 12.2677 12.4797 11.8977 12.1897L10.0677 10.7497C10.0421 10.7272 10.0116 10.711 9.97859 10.7023C9.94562 10.6936 9.91108 10.6927 9.8777 10.6997C9.8377 10.6997 9.7677 10.7197 9.7077 10.7997L7.3277 13.8897C7.1977 14.0897 6.9777 14.1897 6.7477 14.1897Z" fill="#6F7181"/>
</svg>
