<svg width="458" height="396" viewBox="0 0 458 396" fill="none" xmlns="http://www.w3.org/2000/svg">
<g filter="url(#filter0_d_102_63)">
<rect x="54" y="40" width="354" height="288" rx="16" fill="white"/>
</g>
<path d="M202.729 84.0586C203.369 84.3653 203.876 84.8053 204.249 85.3786C204.636 85.9519 204.829 86.6119 204.829 87.3586C204.829 88.4786 204.436 89.4186 203.649 90.1786C202.863 90.9386 201.903 91.3186 200.769 91.3186H194.729V77.3186H200.329C201.423 77.3186 202.349 77.6853 203.109 78.4186C203.869 79.1519 204.249 80.0586 204.249 81.1386C204.249 82.3786 203.743 83.3519 202.729 84.0586ZM200.329 79.0586H196.589V83.3386H200.329C200.916 83.3386 201.409 83.1319 201.809 82.7186C202.209 82.3053 202.409 81.7986 202.409 81.1986C202.409 80.6119 202.203 80.1119 201.789 79.6986C201.389 79.2719 200.903 79.0586 200.329 79.0586ZM200.769 89.5786C201.396 89.5786 201.923 89.3586 202.349 88.9186C202.776 88.4786 202.989 87.9386 202.989 87.2986C202.989 86.6719 202.769 86.1386 202.329 85.6986C201.903 85.2586 201.383 85.0386 200.769 85.0386H196.589V89.5786H200.769ZM215.193 81.3186H216.933V91.3186H215.193V89.5986C214.326 90.9186 213.066 91.5786 211.413 91.5786C210.013 91.5786 208.819 91.0719 207.833 90.0586C206.846 89.0319 206.353 87.7853 206.353 86.3186C206.353 84.8519 206.846 83.6119 207.833 82.5986C208.819 81.5719 210.013 81.0586 211.413 81.0586C213.066 81.0586 214.326 81.7186 215.193 83.0386V81.3186ZM211.633 89.8986C212.646 89.8986 213.493 89.5586 214.173 88.8786C214.853 88.1853 215.193 87.3319 215.193 86.3186C215.193 85.3053 214.853 84.4586 214.173 83.7786C213.493 83.0853 212.646 82.7386 211.633 82.7386C210.633 82.7386 209.793 83.0853 209.113 83.7786C208.433 84.4586 208.093 85.3053 208.093 86.3186C208.093 87.3319 208.433 88.1853 209.113 88.8786C209.793 89.5586 210.633 89.8986 211.633 89.8986ZM219.569 91.3186V76.7186H221.309V91.3186H219.569ZM232.244 81.3186H233.984V91.3186H232.244V89.5986C231.377 90.9186 230.117 91.5786 228.464 91.5786C227.064 91.5786 225.87 91.0719 224.884 90.0586C223.897 89.0319 223.404 87.7853 223.404 86.3186C223.404 84.8519 223.897 83.6119 224.884 82.5986C225.87 81.5719 227.064 81.0586 228.464 81.0586C230.117 81.0586 231.377 81.7186 232.244 83.0386V81.3186ZM228.684 89.8986C229.697 89.8986 230.544 89.5586 231.224 88.8786C231.904 88.1853 232.244 87.3319 232.244 86.3186C232.244 85.3053 231.904 84.4586 231.224 83.7786C230.544 83.0853 229.697 82.7386 228.684 82.7386C227.684 82.7386 226.844 83.0853 226.164 83.7786C225.484 84.4586 225.144 85.3053 225.144 86.3186C225.144 87.3319 225.484 88.1853 226.164 88.8786C226.844 89.5586 227.684 89.8986 228.684 89.8986ZM241.6 81.0586C242.773 81.0586 243.713 81.4319 244.42 82.1786C245.126 82.9119 245.48 83.9119 245.48 85.1786V91.3186H243.74V85.2786C243.74 84.4653 243.52 83.8386 243.08 83.3986C242.64 82.9453 242.033 82.7186 241.26 82.7186C240.393 82.7186 239.693 82.9919 239.16 83.5386C238.626 84.0719 238.36 84.8986 238.36 86.0186V91.3186H236.62V81.3186H238.36V82.7586C239.066 81.6253 240.146 81.0586 241.6 81.0586ZM252.609 91.5786C251.102 91.5786 249.849 91.0786 248.849 90.0786C247.849 89.0653 247.349 87.8119 247.349 86.3186C247.349 84.8253 247.849 83.5786 248.849 82.5786C249.849 81.5653 251.102 81.0586 252.609 81.0586C253.596 81.0586 254.482 81.2986 255.269 81.7786C256.056 82.2453 256.642 82.8786 257.029 83.6786L255.569 84.5186C255.316 83.9853 254.922 83.5586 254.389 83.2386C253.869 82.9186 253.276 82.7586 252.609 82.7586C251.609 82.7586 250.769 83.0986 250.089 83.7786C249.422 84.4586 249.089 85.3053 249.089 86.3186C249.089 87.3186 249.422 88.1586 250.089 88.8386C250.769 89.5186 251.609 89.8586 252.609 89.8586C253.276 89.8586 253.876 89.7053 254.409 89.3986C254.942 89.0786 255.349 88.6519 255.629 88.1186L257.109 88.9786C256.682 89.7653 256.069 90.3986 255.269 90.8786C254.469 91.3453 253.582 91.5786 252.609 91.5786ZM259.91 87.1186C260.083 88.0119 260.49 88.7053 261.13 89.1986C261.783 89.6919 262.583 89.9386 263.53 89.9386C264.85 89.9386 265.81 89.4519 266.41 88.4786L267.89 89.3186C266.917 90.8253 265.45 91.5786 263.49 91.5786C261.903 91.5786 260.61 91.0853 259.61 90.0986C258.623 89.0986 258.13 87.8386 258.13 86.3186C258.13 84.8119 258.617 83.5586 259.59 82.5586C260.563 81.5586 261.823 81.0586 263.37 81.0586C264.837 81.0586 266.03 81.5786 266.95 82.6186C267.883 83.6453 268.35 84.8853 268.35 86.3386C268.35 86.5919 268.33 86.8519 268.29 87.1186H259.91ZM263.37 82.6986C262.437 82.6986 261.663 82.9653 261.05 83.4986C260.437 84.0186 260.057 84.7186 259.91 85.5986H266.59C266.443 84.6519 266.07 83.9319 265.47 83.4386C264.87 82.9453 264.17 82.6986 263.37 82.6986Z" fill="#A1A2AF"/>
<path d="M175.901 125.831C175.901 127.473 175.379 128.808 174.333 129.835C173.288 130.843 171.925 131.449 170.245 131.655V134.119H168.369V131.683C166.801 131.571 165.457 131.132 164.337 130.367C163.217 129.601 162.415 128.565 161.929 127.259L165.261 125.327C165.859 126.82 166.895 127.669 168.369 127.875V123.031C168.351 123.031 168.341 123.031 168.341 123.031L168.285 123.003C167.632 122.76 167.1 122.545 166.689 122.359C166.279 122.172 165.793 121.901 165.233 121.547C164.692 121.192 164.263 120.828 163.945 120.455C163.647 120.063 163.376 119.568 163.133 118.971C162.909 118.373 162.797 117.72 162.797 117.011C162.797 115.368 163.329 114.052 164.393 113.063C165.476 112.073 166.801 111.504 168.369 111.355V108.919H170.245V111.411C172.784 111.709 174.576 113.025 175.621 115.359L172.373 117.263C171.925 116.143 171.216 115.461 170.245 115.219V119.895C171.981 120.585 173.148 121.136 173.745 121.547C175.183 122.573 175.901 124.001 175.901 125.831ZM166.633 117.039C166.633 117.449 166.764 117.813 167.025 118.131C167.287 118.429 167.735 118.737 168.369 119.055V115.135C167.809 115.247 167.38 115.471 167.081 115.807C166.783 116.143 166.633 116.553 166.633 117.039ZM170.245 127.819C171.44 127.557 172.037 126.904 172.037 125.859C172.037 125.392 171.888 125 171.589 124.683C171.309 124.365 170.861 124.067 170.245 123.787V127.819ZM191.437 118.131C191.437 119.643 191.045 120.968 190.261 122.107H190.289L184.185 131.319H179.761L184.129 124.935C182.094 124.897 180.433 124.253 179.145 123.003C177.875 121.733 177.241 120.109 177.241 118.131C177.241 116.133 177.894 114.5 179.201 113.231C180.526 111.961 182.234 111.327 184.325 111.327C186.434 111.327 188.142 111.961 189.449 113.231C190.774 114.481 191.437 116.115 191.437 118.131ZM181.077 118.131C181.077 119.101 181.385 119.876 182.001 120.455C182.635 121.033 183.41 121.323 184.325 121.323C185.277 121.323 186.061 121.033 186.677 120.455C187.293 119.876 187.601 119.101 187.601 118.131C187.601 117.16 187.293 116.395 186.677 115.835C186.061 115.256 185.277 114.967 184.325 114.967C183.41 114.967 182.635 115.256 182.001 115.835C181.385 116.413 181.077 117.179 181.077 118.131ZM200.262 119.671C201.587 120.063 202.661 120.753 203.482 121.743C204.322 122.713 204.742 123.889 204.742 125.271C204.742 127.287 204.061 128.864 202.698 130.003C201.354 131.141 199.702 131.711 197.742 131.711C196.211 131.711 194.839 131.365 193.626 130.675C192.431 129.965 191.563 128.929 191.022 127.567L194.326 125.663C194.811 127.175 195.95 127.931 197.742 127.931C198.731 127.931 199.497 127.697 200.038 127.231C200.598 126.745 200.878 126.092 200.878 125.271C200.878 124.468 200.598 123.824 200.038 123.339C199.497 122.853 198.731 122.611 197.742 122.611H196.902L195.418 120.371L199.282 115.331H191.61V111.719H203.93V114.911L200.262 119.671ZM211.501 127.455L209.401 135.239H206.461L207.581 127.455H211.501ZM220.722 118.859C222.607 118.859 224.194 119.428 225.482 120.567C226.77 121.687 227.414 123.255 227.414 125.271C227.414 127.287 226.733 128.864 225.37 130.003C224.026 131.141 222.374 131.711 220.414 131.711C218.827 131.711 217.427 131.356 216.214 130.647C215.001 129.937 214.123 128.892 213.582 127.511L216.886 125.579C217.371 127.147 218.547 127.931 220.414 127.931C221.403 127.931 222.169 127.697 222.71 127.231C223.27 126.745 223.55 126.092 223.55 125.271C223.55 124.468 223.279 123.824 222.738 123.339C222.197 122.853 221.459 122.611 220.526 122.611H214.59L215.374 111.719H226.49V115.331H218.958L218.706 118.859H220.722ZM236.202 118.075C238.236 118.131 239.888 118.793 241.158 120.063C242.427 121.313 243.062 122.919 243.062 124.879C243.062 126.876 242.399 128.519 241.074 129.807C239.748 131.076 238.04 131.711 235.95 131.711C233.859 131.711 232.151 131.076 230.826 129.807C229.519 128.537 228.866 126.895 228.866 124.879C228.866 123.385 229.248 122.069 230.014 120.931L236.118 111.719H240.542L236.202 118.075ZM233.626 127.203C234.242 127.781 235.016 128.071 235.95 128.071C236.883 128.071 237.658 127.781 238.274 127.203C238.908 126.624 239.226 125.849 239.226 124.879C239.226 123.927 238.908 123.161 238.274 122.583C237.658 122.004 236.883 121.715 235.95 121.715C235.016 121.715 234.242 122.004 233.626 122.583C233.01 123.143 232.702 123.908 232.702 124.879C232.702 125.849 233.01 126.624 233.626 127.203ZM251.678 118.075C253.713 118.131 255.365 118.793 256.634 120.063C257.904 121.313 258.538 122.919 258.538 124.879C258.538 126.876 257.876 128.519 256.55 129.807C255.225 131.076 253.517 131.711 251.426 131.711C249.336 131.711 247.628 131.076 246.302 129.807C244.996 128.537 244.342 126.895 244.342 124.879C244.342 123.385 244.725 122.069 245.49 120.931L251.594 111.719H256.018L251.678 118.075ZM249.102 127.203C249.718 127.781 250.493 128.071 251.426 128.071C252.36 128.071 253.134 127.781 253.75 127.203C254.385 126.624 254.702 125.849 254.702 124.879C254.702 123.927 254.385 123.161 253.75 122.583C253.134 122.004 252.36 121.715 251.426 121.715C250.493 121.715 249.718 122.004 249.102 122.583C248.486 123.143 248.178 123.908 248.178 124.879C248.178 125.849 248.486 126.624 249.102 127.203ZM264.06 130.983C263.593 131.449 263.033 131.683 262.38 131.683C261.727 131.683 261.167 131.449 260.7 130.983C260.233 130.516 260 129.956 260 129.303C260 128.649 260.233 128.089 260.7 127.623C261.167 127.156 261.727 126.923 262.38 126.923C263.033 126.923 263.593 127.156 264.06 127.623C264.527 128.089 264.76 128.649 264.76 129.303C264.76 129.956 264.527 130.516 264.06 130.983ZM274.092 131.711C271.647 131.711 269.724 130.787 268.324 128.939C266.943 127.072 266.252 124.599 266.252 121.519C266.252 118.439 266.943 115.975 268.324 114.127C269.724 112.26 271.647 111.327 274.092 111.327C276.556 111.327 278.479 112.26 279.86 114.127C281.242 115.975 281.932 118.439 281.932 121.519C281.932 124.599 281.242 127.072 279.86 128.939C278.479 130.787 276.556 131.711 274.092 131.711ZM271.124 126.307C271.796 127.389 272.786 127.931 274.092 127.931C275.399 127.931 276.388 127.38 277.06 126.279C277.751 125.177 278.096 123.591 278.096 121.519C278.096 119.428 277.751 117.832 277.06 116.731C276.388 115.629 275.399 115.079 274.092 115.079C272.786 115.079 271.796 115.629 271.124 116.731C270.452 117.832 270.116 119.428 270.116 121.519C270.116 123.609 270.452 125.205 271.124 126.307ZM291.729 131.711C289.284 131.711 287.361 130.787 285.961 128.939C284.58 127.072 283.889 124.599 283.889 121.519C283.889 118.439 284.58 115.975 285.961 114.127C287.361 112.26 289.284 111.327 291.729 111.327C294.193 111.327 296.116 112.26 297.497 114.127C298.879 115.975 299.569 118.439 299.569 121.519C299.569 124.599 298.879 127.072 297.497 128.939C296.116 130.787 294.193 131.711 291.729 131.711ZM288.761 126.307C289.433 127.389 290.423 127.931 291.729 127.931C293.036 127.931 294.025 127.38 294.697 126.279C295.388 125.177 295.733 123.591 295.733 121.519C295.733 119.428 295.388 117.832 294.697 116.731C294.025 115.629 293.036 115.079 291.729 115.079C290.423 115.079 289.433 115.629 288.761 116.731C288.089 117.832 287.753 119.428 287.753 121.519C287.753 123.609 288.089 125.205 288.761 126.307Z" fill="#1E1E2D"/>
<path d="M54 233.963L64.8508 226.557C66.2664 225.59 68.1398 225.631 69.5126 226.657L77.038 232.283C78.3876 233.292 80.2241 233.35 81.6343 232.427L90.6992 226.497C92.1242 225.565 93.9825 225.634 95.3339 226.67L108.783 236.979C110.571 238.349 113.135 237.979 114.462 236.16L119.225 229.632C119.782 228.868 120.591 228.326 121.509 228.101L155.324 219.806C156.315 219.563 157.362 219.706 158.25 220.208L163.983 223.443C165.551 224.329 167.517 224.06 168.79 222.786L182.19 209.38C184.077 207.491 187.281 208.146 188.275 210.624V210.624C189.221 212.982 192.199 213.719 194.136 212.076L210.339 198.325C211.063 197.71 211.983 197.372 212.933 197.372H221.618C223.141 197.372 224.532 198.235 225.21 199.598L229.396 208.025C230.523 210.292 233.443 210.961 235.444 209.41L255.627 193.762C256.748 192.893 258.244 192.68 259.562 193.203L267.836 196.484C269.216 197.03 270.784 196.771 271.914 195.809L293.091 177.778C293.816 177.16 294.737 176.821 295.69 176.821H311.354C312.168 176.821 312.963 177.069 313.632 177.531L323.326 184.225C325.056 185.419 327.415 185.075 328.732 183.435L349.78 157.207C350.271 156.596 350.93 156.141 351.676 155.901L408 137.724" stroke="url(#paint0_linear_102_63)" stroke-width="3"/>
<path d="M67.2175 224.941L54 233.963V313.903H408V137.724L350.532 156.27L326.396 186.345L312.604 176.821H294.214L270.078 197.372L257.435 192.36L231.575 212.41L224.104 197.372H211.461L190.198 215.417L186.175 205.392L166.636 224.941L156.867 219.427L120.088 228.45L112.042 239.477L93.0779 224.941L79.2857 233.963L67.2175 224.941Z" fill="url(#paint1_linear_102_63)"/>
<path d="M82.3914 296.777V302.377H81.6554V298.001L79.8234 301.049H79.7274L77.8954 298.009V302.377H77.1514V296.777H77.9914L79.7754 299.737L81.5514 296.777H82.3914ZM86.8929 301.873C86.4822 302.279 85.9836 302.481 85.3969 302.481C84.8102 302.481 84.3116 302.279 83.9009 301.873C83.4956 301.468 83.2929 300.969 83.2929 300.377C83.2929 299.785 83.4956 299.287 83.9009 298.881C84.3116 298.476 84.8102 298.273 85.3969 298.273C85.9836 298.273 86.4822 298.476 86.8929 298.881C87.3036 299.287 87.5089 299.785 87.5089 300.377C87.5089 300.969 87.3036 301.468 86.8929 301.873ZM85.3969 301.801C85.7969 301.801 86.1329 301.665 86.4049 301.393C86.6769 301.121 86.8129 300.783 86.8129 300.377C86.8129 299.972 86.6769 299.633 86.4049 299.361C86.1329 299.089 85.7969 298.953 85.3969 298.953C85.0022 298.953 84.6689 299.089 84.3969 299.361C84.1249 299.633 83.9889 299.972 83.9889 300.377C83.9889 300.783 84.1249 301.121 84.3969 301.393C84.6689 301.665 85.0022 301.801 85.3969 301.801ZM90.3214 298.273C90.7907 298.273 91.1667 298.423 91.4494 298.721C91.7321 299.015 91.8734 299.415 91.8734 299.921V302.377H91.1774V299.961C91.1774 299.636 91.0894 299.385 90.9134 299.209C90.7374 299.028 90.4947 298.937 90.1854 298.937C89.8387 298.937 89.5587 299.047 89.3454 299.265C89.1321 299.479 89.0254 299.809 89.0254 300.257V302.377H88.3294V298.377H89.0254V298.953C89.3081 298.5 89.7401 298.273 90.3214 298.273Z" fill="#A1A2AF"/>
<path d="M131.292 296.777V297.481H129.636V302.377H128.9V297.481H127.252V296.777H131.292ZM134.076 298.377H134.772V302.377H134.076V301.801C133.793 302.255 133.361 302.481 132.78 302.481C132.311 302.481 131.935 302.335 131.652 302.041C131.369 301.743 131.228 301.34 131.228 300.833V298.377H131.924V300.793C131.924 301.119 132.012 301.372 132.188 301.553C132.364 301.729 132.607 301.817 132.916 301.817C133.263 301.817 133.543 301.711 133.756 301.497C133.969 301.279 134.076 300.945 134.076 300.497V298.377ZM136.32 300.697C136.389 301.055 136.552 301.332 136.808 301.529C137.069 301.727 137.389 301.825 137.768 301.825C138.296 301.825 138.68 301.631 138.92 301.241L139.512 301.577C139.122 302.18 138.536 302.481 137.752 302.481C137.117 302.481 136.6 302.284 136.2 301.889C135.805 301.489 135.608 300.985 135.608 300.377C135.608 299.775 135.802 299.273 136.192 298.873C136.581 298.473 137.085 298.273 137.704 298.273C138.29 298.273 138.768 298.481 139.136 298.897C139.509 299.308 139.696 299.804 139.696 300.385C139.696 300.487 139.688 300.591 139.672 300.697H136.32ZM137.704 298.929C137.33 298.929 137.021 299.036 136.776 299.249C136.53 299.457 136.378 299.737 136.32 300.089H138.992C138.933 299.711 138.784 299.423 138.544 299.225C138.304 299.028 138.024 298.929 137.704 298.929Z" fill="#A1A2AF"/>
<path d="M176.67 302.377L175.062 296.777H175.846L177.126 301.385L178.486 296.777H179.238L180.598 301.385L181.878 296.777H182.662L181.054 302.377H180.19L178.862 297.905L177.534 302.377H176.67ZM183.401 300.697C183.47 301.055 183.633 301.332 183.889 301.529C184.15 301.727 184.47 301.825 184.849 301.825C185.377 301.825 185.761 301.631 186.001 301.241L186.593 301.577C186.204 302.18 185.617 302.481 184.833 302.481C184.198 302.481 183.681 302.284 183.281 301.889C182.886 301.489 182.689 300.985 182.689 300.377C182.689 299.775 182.884 299.273 183.273 298.873C183.662 298.473 184.166 298.273 184.785 298.273C185.372 298.273 185.849 298.481 186.217 298.897C186.59 299.308 186.777 299.804 186.777 300.385C186.777 300.487 186.769 300.591 186.753 300.697H183.401ZM184.785 298.929C184.412 298.929 184.102 299.036 183.857 299.249C183.612 299.457 183.46 299.737 183.401 300.089H186.073C186.014 299.711 185.865 299.423 185.625 299.225C185.385 299.028 185.105 298.929 184.785 298.929ZM190.881 296.777H191.577V302.377H190.881V301.689C190.535 302.217 190.031 302.481 189.369 302.481C188.809 302.481 188.332 302.279 187.937 301.873C187.543 301.463 187.345 300.964 187.345 300.377C187.345 299.791 187.543 299.295 187.937 298.889C188.332 298.479 188.809 298.273 189.369 298.273C190.031 298.273 190.535 298.537 190.881 299.065V296.777ZM189.457 301.809C189.863 301.809 190.201 301.673 190.473 301.401C190.745 301.124 190.881 300.783 190.881 300.377C190.881 299.972 190.745 299.633 190.473 299.361C190.201 299.084 189.863 298.945 189.457 298.945C189.057 298.945 188.721 299.084 188.449 299.361C188.177 299.633 188.041 299.972 188.041 300.377C188.041 300.783 188.177 301.124 188.449 301.401C188.721 301.673 189.057 301.809 189.457 301.809Z" fill="#A1A2AF"/>
<path opacity="0.82" d="M231.193 297.077V298.067H229.42V303.377H228.385V298.067H226.603V297.077H231.193ZM234.262 298.76C234.778 298.76 235.195 298.925 235.513 299.255C235.831 299.585 235.99 300.038 235.99 300.614V303.377H235.018V300.713C235.018 300.377 234.928 300.119 234.748 299.939C234.568 299.759 234.322 299.669 234.01 299.669C233.668 299.669 233.392 299.777 233.182 299.993C232.972 300.203 232.867 300.527 232.867 300.965V303.377H231.895V297.077H232.867V299.453C233.161 298.991 233.626 298.76 234.262 298.76ZM240.07 298.877H241.042V303.377H240.07V302.801C239.776 303.263 239.311 303.494 238.675 303.494C238.159 303.494 237.742 303.329 237.424 302.999C237.106 302.669 236.947 302.216 236.947 301.64V298.877H237.919V301.541C237.919 301.877 238.009 302.135 238.189 302.315C238.369 302.495 238.615 302.585 238.927 302.585C239.269 302.585 239.545 302.48 239.755 302.27C239.965 302.054 240.07 301.727 240.07 301.289V298.877Z" fill="#1E1E2D"/>
<path d="M282.973 297.481H280.493V299.297H282.869V300.001H280.493V302.377H279.749V296.777H282.973V297.481ZM284.498 299.049C284.727 298.553 285.143 298.305 285.746 298.305V299.033C285.405 299.017 285.111 299.108 284.866 299.305C284.621 299.503 284.498 299.82 284.498 300.257V302.377H283.802V298.377H284.498V299.049ZM286.779 297.649C286.646 297.649 286.534 297.604 286.443 297.513C286.352 297.423 286.307 297.313 286.307 297.185C286.307 297.057 286.352 296.948 286.443 296.857C286.534 296.761 286.646 296.713 286.779 296.713C286.907 296.713 287.016 296.761 287.107 296.857C287.198 296.948 287.243 297.057 287.243 297.185C287.243 297.313 287.198 297.423 287.107 297.513C287.016 297.604 286.907 297.649 286.779 297.649ZM286.427 302.377V298.377H287.123V302.377H286.427Z" fill="#A1A2AF"/>
<path d="M328.158 302.481C327.636 302.481 327.188 302.359 326.814 302.113C326.446 301.868 326.188 301.532 326.038 301.105L326.678 300.737C326.897 301.415 327.396 301.753 328.174 301.753C328.558 301.753 328.852 301.676 329.054 301.521C329.257 301.361 329.358 301.151 329.358 300.889C329.358 300.623 329.257 300.423 329.054 300.289C328.852 300.156 328.513 300.015 328.038 299.865C327.804 299.791 327.625 299.732 327.502 299.689C327.38 299.641 327.225 299.572 327.038 299.481C326.857 299.385 326.721 299.289 326.63 299.193C326.54 299.092 326.457 298.961 326.382 298.801C326.313 298.641 326.278 298.46 326.278 298.257C326.278 297.772 326.449 297.388 326.79 297.105C327.132 296.817 327.548 296.673 328.038 296.673C328.481 296.673 328.865 296.785 329.19 297.009C329.521 297.233 329.769 297.529 329.934 297.897L329.31 298.257C329.07 297.681 328.646 297.393 328.038 297.393C327.734 297.393 327.489 297.468 327.302 297.617C327.116 297.767 327.022 297.969 327.022 298.225C327.022 298.471 327.11 298.657 327.286 298.785C327.462 298.913 327.766 299.047 328.198 299.185C328.353 299.233 328.462 299.268 328.526 299.289C328.59 299.311 328.689 299.348 328.822 299.401C328.961 299.455 329.062 299.497 329.126 299.529C329.19 299.561 329.276 299.607 329.382 299.665C329.494 299.724 329.577 299.78 329.63 299.833C329.684 299.887 329.745 299.953 329.814 300.033C329.889 300.108 329.942 300.185 329.974 300.265C330.006 300.345 330.033 300.439 330.054 300.545C330.081 300.647 330.094 300.756 330.094 300.873C330.094 301.364 329.916 301.756 329.558 302.049C329.201 302.337 328.734 302.481 328.158 302.481ZM334.309 298.377H335.005V302.377H334.309V301.689C333.963 302.217 333.459 302.481 332.797 302.481C332.237 302.481 331.76 302.279 331.365 301.873C330.971 301.463 330.773 300.964 330.773 300.377C330.773 299.791 330.971 299.295 331.365 298.889C331.76 298.479 332.237 298.273 332.797 298.273C333.459 298.273 333.963 298.537 334.309 299.065V298.377ZM332.885 301.809C333.291 301.809 333.629 301.673 333.901 301.401C334.173 301.124 334.309 300.783 334.309 300.377C334.309 299.972 334.173 299.633 333.901 299.361C333.629 299.084 333.291 298.945 332.885 298.945C332.485 298.945 332.149 299.084 331.877 299.361C331.605 299.633 331.469 299.972 331.469 300.377C331.469 300.783 331.605 301.124 331.877 301.401C332.149 301.673 332.485 301.809 332.885 301.809ZM338.236 299.049H337.172V301.217C337.172 301.415 337.209 301.556 337.284 301.641C337.364 301.721 337.484 301.764 337.644 301.769C337.804 301.769 338.001 301.764 338.236 301.753V302.377C337.628 302.457 337.182 302.409 336.9 302.233C336.617 302.052 336.476 301.713 336.476 301.217V299.049H335.684V298.377H336.476V297.465L337.172 297.257V298.377H338.236V299.049Z" fill="#A1A2AF"/>
<path d="M376.045 302.481C375.522 302.481 375.074 302.359 374.701 302.113C374.333 301.868 374.074 301.532 373.925 301.105L374.565 300.737C374.783 301.415 375.282 301.753 376.061 301.753C376.445 301.753 376.738 301.676 376.941 301.521C377.143 301.361 377.245 301.151 377.245 300.889C377.245 300.623 377.143 300.423 376.941 300.289C376.738 300.156 376.399 300.015 375.925 299.865C375.69 299.791 375.511 299.732 375.389 299.689C375.266 299.641 375.111 299.572 374.925 299.481C374.743 299.385 374.607 299.289 374.517 299.193C374.426 299.092 374.343 298.961 374.269 298.801C374.199 298.641 374.165 298.46 374.165 298.257C374.165 297.772 374.335 297.388 374.677 297.105C375.018 296.817 375.434 296.673 375.925 296.673C376.367 296.673 376.751 296.785 377.077 297.009C377.407 297.233 377.655 297.529 377.821 297.897L377.197 298.257C376.957 297.681 376.533 297.393 375.925 297.393C375.621 297.393 375.375 297.468 375.189 297.617C375.002 297.767 374.909 297.969 374.909 298.225C374.909 298.471 374.997 298.657 375.173 298.785C375.349 298.913 375.653 299.047 376.085 299.185C376.239 299.233 376.349 299.268 376.413 299.289C376.477 299.311 376.575 299.348 376.709 299.401C376.847 299.455 376.949 299.497 377.013 299.529C377.077 299.561 377.162 299.607 377.269 299.665C377.381 299.724 377.463 299.78 377.517 299.833C377.57 299.887 377.631 299.953 377.701 300.033C377.775 300.108 377.829 300.185 377.861 300.265C377.893 300.345 377.919 300.439 377.941 300.545C377.967 300.647 377.981 300.756 377.981 300.873C377.981 301.364 377.802 301.756 377.445 302.049C377.087 302.337 376.621 302.481 376.045 302.481ZM381.55 298.377H382.246V302.377H381.55V301.801C381.267 302.255 380.835 302.481 380.254 302.481C379.784 302.481 379.408 302.335 379.126 302.041C378.843 301.743 378.702 301.34 378.702 300.833V298.377H379.398V300.793C379.398 301.119 379.486 301.372 379.662 301.553C379.838 301.729 380.08 301.817 380.39 301.817C380.736 301.817 381.016 301.711 381.23 301.497C381.443 301.279 381.55 300.945 381.55 300.497V298.377ZM385.297 298.273C385.767 298.273 386.143 298.423 386.425 298.721C386.708 299.015 386.849 299.415 386.849 299.921V302.377H386.153V299.961C386.153 299.636 386.065 299.385 385.889 299.209C385.713 299.028 385.471 298.937 385.161 298.937C384.815 298.937 384.535 299.047 384.321 299.265C384.108 299.479 384.001 299.809 384.001 300.257V302.377H383.305V298.377H384.001V298.953C384.284 298.5 384.716 298.273 385.297 298.273Z" fill="#A1A2AF"/>
<g filter="url(#filter1_d_102_63)">
<ellipse rx="10.4156" ry="10.4053" transform="matrix(0.767859 -0.640619 0.644953 0.764222 232.354 210.183)" fill="white"/>
<path d="M238.432 205.112C241.247 208.447 240.811 213.422 237.453 216.224C234.094 219.027 229.09 218.589 226.276 215.254C223.462 211.919 223.897 206.944 227.256 204.142C230.614 201.34 235.618 201.777 238.432 205.112Z" stroke="#55C960" stroke-width="5"/>
</g>
<g filter="url(#filter2_bd_102_63)">
<path fill-rule="evenodd" clip-rule="evenodd" d="M221.305 157.787C215.782 157.787 211.305 162.264 211.305 167.787V180.944C211.305 186.467 215.782 190.944 221.305 190.944H227.103C227.127 190.983 227.154 191.021 227.184 191.058L232.117 197.126C232.517 197.618 233.268 197.618 233.669 197.126L238.601 191.058C238.632 191.021 238.659 190.983 238.682 190.944H279.872C285.394 190.944 289.872 186.467 289.872 180.944V167.787C289.872 162.264 285.394 157.787 279.872 157.787H221.305Z" fill="white" fill-opacity="0.5"/>
<path d="M234.639 176.042C234.639 176.608 234.456 177.072 234.089 177.432C233.729 177.785 233.256 177.998 232.669 178.072V178.962H232.019V178.082C231.466 178.048 230.993 177.898 230.599 177.632C230.206 177.365 229.923 177.002 229.749 176.542L230.739 175.972C230.973 176.558 231.399 176.885 232.019 176.952V174.872C231.719 174.758 231.476 174.658 231.289 174.572C231.103 174.478 230.903 174.352 230.689 174.192C230.483 174.032 230.326 173.838 230.219 173.612C230.119 173.378 230.069 173.108 230.069 172.802C230.069 172.242 230.256 171.788 230.629 171.442C231.003 171.095 231.466 170.895 232.019 170.842V169.962H232.669V170.852C233.563 170.972 234.183 171.428 234.529 172.222L233.559 172.782C233.386 172.348 233.089 172.085 232.669 171.992V173.972C232.883 174.052 233.043 174.115 233.149 174.162C233.263 174.208 233.409 174.278 233.589 174.372C233.776 174.465 233.919 174.558 234.019 174.652C234.119 174.745 234.223 174.858 234.329 174.992C234.443 175.125 234.523 175.282 234.569 175.462C234.616 175.635 234.639 175.828 234.639 176.042ZM231.219 172.802C231.219 173.008 231.279 173.178 231.399 173.312C231.526 173.445 231.733 173.578 232.019 173.712V171.972C231.773 172.012 231.576 172.105 231.429 172.252C231.289 172.398 231.219 172.582 231.219 172.802ZM232.669 176.942C232.936 176.888 233.139 176.782 233.279 176.622C233.419 176.462 233.489 176.272 233.489 176.052C233.489 175.832 233.423 175.655 233.289 175.522C233.156 175.382 232.949 175.248 232.669 175.122V176.942ZM239.168 174.322C239.854 174.702 240.198 175.268 240.198 176.022C240.198 176.662 239.974 177.168 239.528 177.542C239.081 177.908 238.488 178.092 237.748 178.092C237.008 178.092 236.411 177.908 235.958 177.542C235.511 177.168 235.288 176.662 235.288 176.022C235.288 175.662 235.378 175.335 235.558 175.042C235.738 174.742 235.991 174.502 236.318 174.322C235.791 173.975 235.528 173.482 235.528 172.842C235.528 172.202 235.741 171.708 236.168 171.362C236.594 171.008 237.121 170.832 237.748 170.832C238.368 170.832 238.891 171.008 239.318 171.362C239.751 171.708 239.968 172.202 239.968 172.842C239.968 173.482 239.701 173.975 239.168 174.322ZM237.748 171.922C237.434 171.922 237.178 172.005 236.978 172.172C236.778 172.338 236.678 172.578 236.678 172.892C236.678 173.192 236.778 173.428 236.978 173.602C237.184 173.775 237.441 173.862 237.748 173.862C238.048 173.862 238.301 173.775 238.508 173.602C238.714 173.428 238.818 173.192 238.818 172.892C238.818 172.578 238.714 172.338 238.508 172.172C238.308 172.005 238.054 171.922 237.748 171.922ZM237.748 177.002C238.134 177.002 238.448 176.908 238.688 176.722C238.928 176.528 239.048 176.258 239.048 175.912C239.048 175.565 238.928 175.298 238.688 175.112C238.448 174.918 238.134 174.822 237.748 174.822C237.354 174.822 237.038 174.918 236.798 175.112C236.558 175.298 236.438 175.565 236.438 175.912C236.438 176.258 236.558 176.528 236.798 176.722C237.038 176.908 237.354 177.002 237.748 177.002ZM242.673 176.762L241.973 179.362H241.073L241.473 176.762H242.673ZM247.419 174.322C248.106 174.702 248.449 175.268 248.449 176.022C248.449 176.662 248.226 177.168 247.779 177.542C247.333 177.908 246.739 178.092 245.999 178.092C245.259 178.092 244.663 177.908 244.209 177.542C243.763 177.168 243.539 176.662 243.539 176.022C243.539 175.662 243.629 175.335 243.809 175.042C243.989 174.742 244.243 174.502 244.569 174.322C244.043 173.975 243.779 173.482 243.779 172.842C243.779 172.202 243.993 171.708 244.419 171.362C244.846 171.008 245.373 170.832 245.999 170.832C246.619 170.832 247.143 171.008 247.569 171.362C248.003 171.708 248.219 172.202 248.219 172.842C248.219 173.482 247.953 173.975 247.419 174.322ZM245.999 171.922C245.686 171.922 245.429 172.005 245.229 172.172C245.029 172.338 244.929 172.578 244.929 172.892C244.929 173.192 245.029 173.428 245.229 173.602C245.436 173.775 245.693 173.862 245.999 173.862C246.299 173.862 246.553 173.775 246.759 173.602C246.966 173.428 247.069 173.192 247.069 172.892C247.069 172.578 246.966 172.338 246.759 172.172C246.559 172.005 246.306 171.922 245.999 171.922ZM245.999 177.002C246.386 177.002 246.699 176.908 246.939 176.722C247.179 176.528 247.299 176.258 247.299 175.912C247.299 175.565 247.179 175.298 246.939 175.112C246.699 174.918 246.386 174.822 245.999 174.822C245.606 174.822 245.289 174.918 245.049 175.112C244.809 175.298 244.689 175.565 244.689 175.912C244.689 176.258 244.809 176.528 245.049 176.722C245.289 176.908 245.606 177.002 245.999 177.002ZM251.72 173.312C252.447 173.312 253.04 173.535 253.5 173.982C253.96 174.422 254.19 174.995 254.19 175.702C254.19 176.408 253.96 176.985 253.5 177.432C253.04 177.872 252.447 178.092 251.72 178.092C250.987 178.092 250.39 177.872 249.93 177.432C249.47 176.985 249.24 176.408 249.24 175.702C249.24 175.168 249.38 174.698 249.66 174.292L251.88 170.962H253.19L251.59 173.312H251.72ZM251.72 177.002C252.107 177.002 252.424 176.885 252.67 176.652C252.917 176.412 253.04 176.095 253.04 175.702C253.04 175.308 252.917 174.995 252.67 174.762C252.424 174.522 252.107 174.402 251.72 174.402C251.327 174.402 251.007 174.522 250.76 174.762C250.514 174.995 250.39 175.308 250.39 175.702C250.39 176.095 250.514 176.412 250.76 176.652C251.007 176.885 251.327 177.002 251.72 177.002ZM253.984 170.962H258.434V171.962L255.974 177.962H254.764L257.184 172.062H253.984V170.962ZM259.042 177.862C258.896 178.008 258.719 178.082 258.512 178.082C258.306 178.082 258.129 178.008 257.982 177.862C257.836 177.715 257.762 177.538 257.762 177.332C257.762 177.125 257.832 176.948 257.972 176.802C258.119 176.655 258.299 176.582 258.512 176.582C258.719 176.582 258.896 176.655 259.042 176.802C259.189 176.948 259.262 177.125 259.262 177.332C259.262 177.538 259.189 177.715 259.042 177.862ZM263.121 173.822C263.628 173.942 264.038 174.178 264.351 174.532C264.671 174.878 264.831 175.315 264.831 175.842C264.831 176.542 264.595 177.092 264.121 177.492C263.648 177.892 263.068 178.092 262.381 178.092C261.848 178.092 261.368 177.968 260.941 177.722C260.521 177.475 260.218 177.115 260.031 176.642L261.011 176.072C261.218 176.672 261.675 176.972 262.381 176.972C262.781 176.972 263.098 176.872 263.331 176.672C263.565 176.465 263.681 176.188 263.681 175.842C263.681 175.495 263.565 175.222 263.331 175.022C263.098 174.822 262.781 174.722 262.381 174.722H262.121L261.661 174.032L263.171 172.042H260.241V170.962H264.541V171.942L263.121 173.822ZM270.352 177.102C269.872 177.762 269.198 178.092 268.332 178.092C267.465 178.092 266.788 177.762 266.302 177.102C265.822 176.442 265.582 175.562 265.582 174.462C265.582 173.362 265.822 172.482 266.302 171.822C266.788 171.162 267.465 170.832 268.332 170.832C269.198 170.832 269.872 171.162 270.352 171.822C270.838 172.482 271.082 173.362 271.082 174.462C271.082 175.562 270.838 176.442 270.352 177.102ZM268.332 176.972C268.852 176.972 269.248 176.755 269.522 176.322C269.795 175.888 269.932 175.268 269.932 174.462C269.932 173.655 269.795 173.035 269.522 172.602C269.248 172.168 268.852 171.952 268.332 171.952C267.818 171.952 267.422 172.168 267.142 172.602C266.868 173.035 266.732 173.655 266.732 174.462C266.732 175.268 266.868 175.888 267.142 176.322C267.422 176.755 267.818 176.972 268.332 176.972Z" fill="#1E1E2D"/>
</g>
<defs>
<filter id="filter0_d_102_63" x="0" y="0" width="462" height="396" filterUnits="userSpaceOnUse" color-interpolation-filters="sRGB">
<feFlood flood-opacity="0" result="BackgroundImageFix"/>
<feColorMatrix in="SourceAlpha" type="matrix" values="0 0 0 0 0 0 0 0 0 0 0 0 0 0 0 0 0 0 127 0" result="hardAlpha"/>
<feOffset dy="14"/>
<feGaussianBlur stdDeviation="27"/>
<feComposite in2="hardAlpha" operator="out"/>
<feColorMatrix type="matrix" values="0 0 0 0 0 0 0 0 0 0 0 0 0 0 0 0 0 0 0.03 0"/>
<feBlend mode="normal" in2="BackgroundImageFix" result="effect1_dropShadow_102_63"/>
<feBlend mode="normal" in="SourceGraphic" in2="effect1_dropShadow_102_63" result="shape"/>
</filter>
<filter id="filter1_d_102_63" x="196.914" y="178.802" width="70.8813" height="70.7615" filterUnits="userSpaceOnUse" color-interpolation-filters="sRGB">
<feFlood flood-opacity="0" result="BackgroundImageFix"/>
<feColorMatrix in="SourceAlpha" type="matrix" values="0 0 0 0 0 0 0 0 0 0 0 0 0 0 0 0 0 0 127 0" result="hardAlpha"/>
<feOffset dy="4"/>
<feGaussianBlur stdDeviation="12.5"/>
<feColorMatrix type="matrix" values="0 0 0 0 0.329412 0 0 0 0 0.788235 0 0 0 0 0.376471 0 0 0 0.4 0"/>
<feBlend mode="normal" in2="BackgroundImageFix" result="effect1_dropShadow_102_63"/>
<feBlend mode="normal" in="SourceGraphic" in2="effect1_dropShadow_102_63" result="shape"/>
</filter>
<filter id="filter2_bd_102_63" x="177.305" y="127.787" width="146.567" height="107.708" filterUnits="userSpaceOnUse" color-interpolation-filters="sRGB">
<feFlood flood-opacity="0" result="BackgroundImageFix"/>
<feGaussianBlur in="BackgroundImageFix" stdDeviation="11"/>
<feComposite in2="SourceAlpha" operator="in" result="effect1_backgroundBlur_102_63"/>
<feColorMatrix in="SourceAlpha" type="matrix" values="0 0 0 0 0 0 0 0 0 0 0 0 0 0 0 0 0 0 127 0" result="hardAlpha"/>
<feOffset dy="4"/>
<feGaussianBlur stdDeviation="17"/>
<feComposite in2="hardAlpha" operator="out"/>
<feColorMatrix type="matrix" values="0 0 0 0 0.375 0 0 0 0 0.375 0 0 0 0 0.375 0 0 0 0.1 0"/>
<feBlend mode="normal" in2="effect1_backgroundBlur_102_63" result="effect2_dropShadow_102_63"/>
<feBlend mode="normal" in="SourceGraphic" in2="effect2_dropShadow_102_63" result="shape"/>
</filter>
<linearGradient id="paint0_linear_102_63" x1="417.331" y1="133.932" x2="33.4501" y2="239.477" gradientUnits="userSpaceOnUse">
<stop stop-color="#55C960" stop-opacity="0"/>
<stop offset="0.0001" stop-color="#55C960" stop-opacity="0"/>
<stop offset="0.510417" stop-color="#55C960"/>
<stop offset="0.963542" stop-color="#55C960" stop-opacity="0"/>
</linearGradient>
<linearGradient id="paint1_linear_102_63" x1="231" y1="137.724" x2="231" y2="359.615" gradientUnits="userSpaceOnUse">
<stop offset="0.210124" stop-color="#55C960" stop-opacity="0.18"/>
<stop offset="0.577181" stop-color="#55C960" stop-opacity="0"/>
</linearGradient>
</defs>
</svg>
