<svg width="25" height="25" viewBox="0 0 25 25" fill="none" xmlns="http://www.w3.org/2000/svg">
<path d="M7.65748 2.94995H5.75748C3.56748 2.94995 2.41748 4.09995 2.41748 6.27995V8.17995C2.41748 10.36 3.56748 11.51 5.74748 11.51H7.64748C9.82748 11.51 10.9775 10.36 10.9775 8.17995V6.27995C10.9875 4.09995 9.83748 2.94995 7.65748 2.94995Z" fill="#1E1E2D"/>
<path opacity="0.6" d="M19.0874 2.94995H17.1874C15.0074 2.94995 13.8574 4.09995 13.8574 6.27995V8.17995C13.8574 10.36 15.0074 11.51 17.1874 11.51H19.0874C21.2674 11.51 22.4174 10.36 22.4174 8.17995V6.27995C22.4174 4.09995 21.2674 2.94995 19.0874 2.94995Z" fill="#1E1E2D"/>
<path d="M19.0874 14.3799H17.1874C15.0074 14.3799 13.8574 15.5299 13.8574 17.7099V19.6099C13.8574 21.7899 15.0074 22.9399 17.1874 22.9399H19.0874C21.2674 22.9399 22.4174 21.7899 22.4174 19.6099V17.7099C22.4174 15.5299 21.2674 14.3799 19.0874 14.3799Z" fill="#1E1E2D"/>
<path opacity="0.6" d="M7.65748 14.3799H5.75748C3.56748 14.3799 2.41748 15.5299 2.41748 17.7099V19.6099C2.41748 21.7999 3.56748 22.9499 5.74748 22.9499H7.64748C9.82748 22.9499 10.9775 21.7999 10.9775 19.6199V17.7199C10.9875 15.5299 9.83748 14.3799 7.65748 14.3799Z" fill="#1E1E2D"/>
</svg>
