<svg width="26" height="25" viewBox="0 0 26 25" fill="none" xmlns="http://www.w3.org/2000/svg">
<path opacity="0.4" d="M7.61595 10.0087L12.6455 7.88869C12.867 7.79869 13.12 7.79869 13.3309 7.88869L18.3711 10.0087C18.8139 10.1987 19.2251 9.68869 18.9194 9.32869L13.6472 3.21869C13.2887 2.79869 12.6983 2.79869 12.3398 3.21869L7.06765 9.32869C6.76187 9.68869 7.1731 10.1987 7.61595 10.0087Z" fill="#55C960"/>
<path opacity="0.4" d="M7.61579 15.8087L12.6559 17.9287C12.8774 18.0187 13.1304 18.0187 13.3413 17.9287L18.3814 15.8087C18.8243 15.6187 19.2355 16.1287 18.9297 16.4887L13.6576 22.5987C13.2991 23.0187 12.7086 23.0187 12.3501 22.5987L7.07803 16.4887C6.7617 16.1287 7.16238 15.6187 7.61579 15.8087Z" fill="#55C960"/>
<path d="M12.7616 10.3987L8.40686 12.4587C8.01672 12.6387 8.01672 13.1687 8.40686 13.3487L12.7616 15.4087C12.9092 15.4787 13.0885 15.4787 13.2361 15.4087L17.5909 13.3487C17.981 13.1687 17.981 12.6387 17.5909 12.4587L13.2361 10.3987C13.1623 10.3641 13.0812 10.3462 12.9989 10.3462C12.9166 10.3462 12.8354 10.3641 12.7616 10.3987Z" fill="#55C960"/>
</svg>
