<svg width="25" height="25" viewBox="0 0 25 25" fill="none" xmlns="http://www.w3.org/2000/svg">
<g opacity="0.8">
<path d="M12.4175 23.6997C6.48748 23.6997 1.66748 18.8797 1.66748 12.9497C1.66748 7.01971 6.48748 2.19971 12.4175 2.19971C18.3475 2.19971 23.1675 7.01971 23.1675 12.9497C23.1675 18.8797 18.3475 23.6997 12.4175 23.6997ZM12.4175 3.69971C7.31748 3.69971 3.16748 7.84971 3.16748 12.9497C3.16748 18.0497 7.31748 22.1997 12.4175 22.1997C17.5175 22.1997 21.6675 18.0497 21.6675 12.9497C21.6675 7.84971 17.5175 3.69971 12.4175 3.69971Z" fill="#6F7181"/>
<path d="M12.4185 18.3388C12.241 18.3388 12.072 18.3135 11.9283 18.2628C10.1115 17.6459 7.22998 15.4319 7.22998 12.1363C7.22998 10.3786 8.64963 8.95053 10.3988 8.95053C11.1594 8.95053 11.8607 9.21249 12.4269 9.68571C12.9931 9.21249 13.7029 8.95053 14.4465 8.95053C16.1957 8.95053 17.6154 10.3786 17.6154 12.1363C17.6154 15.4235 14.7338 17.6374 12.9086 18.2628C12.7649 18.3135 12.5875 18.3388 12.4185 18.3388ZM10.3904 10.2265C9.34256 10.2265 8.48907 11.0885 8.48907 12.1447C8.48907 15.0939 11.3368 16.7333 12.334 17.0713C12.3678 17.0797 12.4523 17.0797 12.4861 17.0713C13.4832 16.7333 16.3309 15.0939 16.3309 12.1447C16.3309 11.0885 15.4775 10.2265 14.4296 10.2265C13.8381 10.2265 13.2719 10.5138 12.917 10.9955C12.6804 11.3166 12.1396 11.3166 11.903 10.9955C11.731 10.7555 11.5038 10.5603 11.2405 10.4265C10.9773 10.2927 10.6857 10.2241 10.3904 10.2265Z" fill="#6F7181"/>
</g>
</svg>
