<svg width="25" height="25" viewBox="0 0 25 25" fill="none" xmlns="http://www.w3.org/2000/svg">
<g opacity="0.8">
<path d="M12.4175 22.8447C6.48748 22.8447 1.66748 18.0247 1.66748 12.0947C1.66748 9.73473 2.41748 7.49473 3.83748 5.61473C4.08748 5.28473 4.55748 5.22473 4.88748 5.47473C5.21748 5.72473 5.28748 6.19473 5.03748 6.52473C3.81944 8.12569 3.16229 10.0831 3.16748 12.0947C3.16748 17.1947 7.31748 21.3447 12.4175 21.3447C17.5175 21.3447 21.6675 17.1947 21.6675 12.0947C21.6675 6.99473 17.5175 2.84473 12.4175 2.84473C12.0075 2.84473 11.6675 2.50473 11.6675 2.09473C11.6675 1.68473 12.0075 1.34473 12.4175 1.34473C18.3475 1.34473 23.1675 6.16473 23.1675 12.0947C23.1675 18.0247 18.3475 22.8447 12.4175 22.8447Z" fill="#6F7181"/>
<path d="M12.4175 19.8447C8.14748 19.8447 4.66748 16.3647 4.66748 12.0947C4.66748 11.6847 5.00748 11.3447 5.41748 11.3447C5.82748 11.3447 6.16748 11.6847 6.16748 12.0947C6.16748 15.5447 8.96748 18.3447 12.4175 18.3447C15.8675 18.3447 18.6675 15.5447 18.6675 12.0947C18.6675 8.64473 15.8675 5.84473 12.4175 5.84473C12.0075 5.84473 11.6675 5.50473 11.6675 5.09473C11.6675 4.68473 12.0075 4.34473 12.4175 4.34473C16.6875 4.34473 20.1675 7.82473 20.1675 12.0947C20.1675 16.3647 16.6875 19.8447 12.4175 19.8447Z" fill="#6F7181"/>
<path d="M12.4175 16.8447C12.0075 16.8447 11.6675 16.5047 11.6675 16.0947C11.6675 15.6847 12.0075 15.3447 12.4175 15.3447C14.2075 15.3447 15.6675 13.8847 15.6675 12.0947C15.6675 10.3047 14.2075 8.84473 12.4175 8.84473C12.0075 8.84473 11.6675 8.50473 11.6675 8.09473C11.6675 7.68473 12.0075 7.34473 12.4175 7.34473C15.0375 7.34473 17.1675 9.47473 17.1675 12.0947C17.1675 14.7147 15.0375 16.8447 12.4175 16.8447Z" fill="#6F7181"/>
</g>
</svg>
