<svg width="22" height="22" viewBox="0 0 22 22" fill="none" xmlns="http://www.w3.org/2000/svg">
<path opacity="0.8" d="M11.6919 21.8807C11.5219 21.8807 11.3519 21.8807 11.1819 21.8707C5.58188 21.6207 0.901882 17.1107 0.511882 11.6107C0.171882 6.89067 2.90188 2.48067 7.30188 0.630669C8.55188 0.110669 9.21188 0.510669 9.49188 0.800669C9.77188 1.08067 10.1619 1.73067 9.64188 2.92067C9.18231 3.97714 8.95061 5.11862 8.96188 6.27067C8.98188 10.7007 12.6619 14.4607 17.1519 14.6407C17.8019 14.6707 18.4419 14.6207 19.0619 14.5107C20.3819 14.2707 20.9319 14.8007 21.1419 15.1407C21.3519 15.4807 21.5919 16.2107 20.7919 17.2907C18.6719 20.1907 15.3019 21.8807 11.6919 21.8807ZM2.00188 11.5007C2.34188 16.2607 6.40188 20.1607 11.2419 20.3707C14.5319 20.5307 17.6519 19.0307 19.5719 16.4107C19.7219 16.2007 19.7919 16.0507 19.8219 15.9707C19.7319 15.9607 19.5719 15.9507 19.3219 16.0007C18.5919 16.1307 17.8319 16.1807 17.0819 16.1507C11.8019 15.9407 7.48188 11.5107 7.45188 6.29067C7.45188 4.91067 7.72188 3.58067 8.27188 2.33067C8.37188 2.11067 8.39188 1.96067 8.40188 1.88067C8.31188 1.88067 8.15188 1.90067 7.89188 2.01067C4.08188 3.61067 1.72188 7.43067 2.00188 11.5007Z" fill="#A1A2AF"/>
</svg>
