<svg width="25" height="25" viewBox="0 0 25 25" fill="none" xmlns="http://www.w3.org/2000/svg">
<path d="M15.6574 22.3647H15.5274C11.0874 22.3647 8.94745 20.6147 8.57745 16.6947C8.53745 16.2847 8.83745 15.9147 9.25745 15.8747C9.65745 15.8347 10.0374 16.1447 10.0774 16.5547C10.3674 19.6947 11.8474 20.8647 15.5374 20.8647H15.6674C19.7374 20.8647 21.1774 19.4247 21.1774 15.3547V8.83474C21.1774 4.76474 19.7374 3.32474 15.6674 3.32474H15.5374C11.8274 3.32474 10.3474 4.51474 10.0774 7.71474C10.0274 8.12474 9.67745 8.43474 9.25745 8.39474C9.15889 8.38704 9.06282 8.35995 8.97475 8.31504C8.88669 8.27013 8.80835 8.20827 8.74425 8.13302C8.68014 8.05776 8.63152 7.97059 8.60118 7.8765C8.57085 7.78242 8.55938 7.68327 8.56745 7.58474C8.90745 3.60474 11.0574 1.82474 15.5274 1.82474H15.6574C20.5674 1.82474 22.6674 3.92474 22.6674 8.83474V15.3547C22.6674 20.2647 20.5674 22.3647 15.6574 22.3647Z" fill="#FB6B63"/>
<path d="M15.4176 12.8447H4.0376C3.6276 12.8447 3.2876 12.5047 3.2876 12.0947C3.2876 11.6847 3.6276 11.3447 4.0376 11.3447H15.4176C15.8276 11.3447 16.1676 11.6847 16.1676 12.0947C16.1676 12.5047 15.8276 12.8447 15.4176 12.8447Z" fill="#FB6B63"/>
<path d="M6.26762 16.1947C6.07762 16.1947 5.88762 16.1247 5.73762 15.9747L2.38762 12.6247C2.24814 12.4836 2.16992 12.2932 2.16992 12.0947C2.16992 11.8963 2.24814 11.7059 2.38762 11.5647L5.73762 8.21472C6.02762 7.92472 6.50762 7.92472 6.79762 8.21472C7.08762 8.50472 7.08762 8.98472 6.79762 9.27472L3.97762 12.0947L6.79762 14.9147C7.08762 15.2047 7.08762 15.6847 6.79762 15.9747C6.65762 16.1247 6.45762 16.1947 6.26762 16.1947Z" fill="#FB6B63"/>
</svg>
