<svg width="25" height="25" viewBox="0 0 25 25" fill="none" xmlns="http://www.w3.org/2000/svg">
<g opacity="0.8">
<path d="M15.1177 23.6997H9.71773C4.77773 23.6997 2.67773 21.5897 2.67773 16.6597V12.1697C2.67773 11.7597 3.01773 11.4197 3.42773 11.4197C3.83773 11.4197 4.17773 11.7597 4.17773 12.1697V16.6597C4.17773 20.7497 5.62773 22.1997 9.71773 22.1997H15.1077C19.1977 22.1997 20.6477 20.7497 20.6477 16.6597V12.1697C20.6477 11.7597 20.9877 11.4197 21.3977 11.4197C21.8077 11.4197 22.1477 11.7597 22.1477 12.1697V16.6597C22.1577 21.5897 20.0477 23.6997 15.1177 23.6997Z" fill="#6F7181"/>
<path d="M12.4165 13.6997C11.3165 13.6997 10.3165 13.2697 9.60651 12.4797C8.89651 11.6897 8.56651 10.6597 8.67651 9.55971L9.34651 2.87971C9.38651 2.49971 9.70651 2.19971 10.0965 2.19971H14.7665C15.1565 2.19971 15.4765 2.48971 15.5165 2.87971L16.1865 9.55971C16.2965 10.6597 15.9665 11.6897 15.2565 12.4797C14.5165 13.2697 13.5165 13.6997 12.4165 13.6997ZM10.7665 3.69971L10.1665 9.70971C10.0965 10.3797 10.2965 11.0097 10.7165 11.4697C11.5665 12.4097 13.2665 12.4097 14.1165 11.4697C14.5365 10.9997 14.7365 10.3697 14.6665 9.70971L14.0665 3.69971H10.7665Z" fill="#6F7181"/>
<path d="M18.7275 13.6997C16.6975 13.6997 14.8875 12.0597 14.6775 10.0397L13.9775 3.02971C13.9575 2.81971 14.0275 2.60971 14.1675 2.44971C14.3075 2.28971 14.5075 2.19971 14.7275 2.19971H17.7775C20.7175 2.19971 22.0875 3.42971 22.4975 6.44971L22.7775 9.22971C22.8975 10.4097 22.5375 11.5297 21.7675 12.3797C20.9975 13.2297 19.9175 13.6997 18.7275 13.6997ZM15.5575 3.69971L16.1775 9.88971C16.3075 11.1397 17.4675 12.1997 18.7275 12.1997C19.4875 12.1997 20.1675 11.9097 20.6575 11.3797C21.1375 10.8497 21.3575 10.1397 21.2875 9.37971L21.0075 6.62971C20.6975 4.36971 19.9675 3.69971 17.7775 3.69971H15.5575Z" fill="#6F7181"/>
<path d="M6.05653 13.6997C4.86653 13.6997 3.78653 13.2297 3.01653 12.3797C2.24653 11.5297 1.88653 10.4097 2.00653 9.22971L2.27653 6.47971C2.69653 3.42971 4.06653 2.19971 7.00653 2.19971H10.0565C10.2665 2.19971 10.4665 2.28971 10.6165 2.44971C10.7665 2.60971 10.8265 2.81971 10.8065 3.02971L10.1065 10.0397C9.89653 12.0597 8.08652 13.6997 6.05653 13.6997ZM7.00653 3.69971C4.81653 3.69971 4.08653 4.35971 3.76653 6.64971L3.49653 9.37971C3.41653 10.1397 3.64653 10.8497 4.12653 11.3797C4.60653 11.9097 5.28653 12.1997 6.05653 12.1997C7.31653 12.1997 8.48653 11.1397 8.60653 9.88971L9.22653 3.69971H7.00653Z" fill="#6F7181"/>
<path d="M14.9175 23.6997H9.91748C9.50748 23.6997 9.16748 23.3597 9.16748 22.9497V20.4497C9.16748 18.3497 10.3175 17.1997 12.4175 17.1997C14.5175 17.1997 15.6675 18.3497 15.6675 20.4497V22.9497C15.6675 23.3597 15.3275 23.6997 14.9175 23.6997ZM10.6675 22.1997H14.1675V20.4497C14.1675 19.1897 13.6775 18.6997 12.4175 18.6997C11.1575 18.6997 10.6675 19.1897 10.6675 20.4497V22.1997Z" fill="#6F7181"/>
</g>
</svg>
