<svg width="23" height="23" viewBox="0 0 23 23" fill="none" xmlns="http://www.w3.org/2000/svg">
<path d="M11.7075 18.3798C7.70752 18.3798 4.45752 15.1298 4.45752 11.1298C4.45752 7.12976 7.70752 3.87976 11.7075 3.87976C15.7075 3.87976 18.9575 7.12976 18.9575 11.1298C18.9575 15.1298 15.7075 18.3798 11.7075 18.3798ZM11.7075 5.37976C8.53752 5.37976 5.95752 7.95976 5.95752 11.1298C5.95752 14.2998 8.53752 16.8798 11.7075 16.8798C14.8775 16.8798 17.4575 14.2998 17.4575 11.1298C17.4575 7.95976 14.8775 5.37976 11.7075 5.37976Z" fill="#FDB600"/>
<path d="M11.7075 22.0898C11.1575 22.0898 10.7075 21.6798 10.7075 21.1298V21.0498C10.7075 20.4998 11.1575 20.0498 11.7075 20.0498C12.2575 20.0498 12.7075 20.4998 12.7075 21.0498C12.7075 21.5998 12.2575 22.0898 11.7075 22.0898ZM18.8475 19.2698C18.5875 19.2698 18.3375 19.1698 18.1375 18.9798L18.0075 18.8498C17.9149 18.7572 17.8415 18.6473 17.7914 18.5263C17.7413 18.4053 17.7155 18.2757 17.7155 18.1448C17.7155 18.0138 17.7413 17.8842 17.7914 17.7632C17.8415 17.6423 17.9149 17.5323 18.0075 17.4398C18.1001 17.3472 18.21 17.2737 18.331 17.2236C18.4519 17.1735 18.5816 17.1477 18.7125 17.1477C18.8434 17.1477 18.9731 17.1735 19.0941 17.2236C19.215 17.2737 19.3249 17.3472 19.4175 17.4398L19.5475 17.5698C19.6865 17.7088 19.7812 17.8859 19.8197 18.0786C19.8582 18.2714 19.8388 18.4712 19.764 18.653C19.6891 18.8348 19.5622 18.9903 19.3991 19.1001C19.236 19.2098 19.0441 19.2689 18.8475 19.2698ZM4.56752 19.2698C4.30752 19.2698 4.05752 19.1698 3.85752 18.9798C3.76482 18.8872 3.69127 18.7774 3.64109 18.6564C3.59091 18.5354 3.56508 18.4057 3.56508 18.2748C3.56508 18.1438 3.59091 18.0141 3.64109 17.8931C3.69127 17.7722 3.76482 17.6623 3.85752 17.5698L3.98752 17.4398C4.0801 17.3472 4.19001 17.2737 4.31098 17.2236C4.43194 17.1735 4.56159 17.1477 4.69252 17.1477C4.82345 17.1477 4.9531 17.1735 5.07406 17.2236C5.19503 17.2737 5.30494 17.3472 5.39752 17.4398C5.4901 17.5323 5.56354 17.6423 5.61365 17.7632C5.66375 17.8842 5.68954 18.0138 5.68954 18.1448C5.68954 18.2757 5.66375 18.4053 5.61365 18.5263C5.56354 18.6473 5.4901 18.7572 5.39752 18.8498L5.26752 18.9798C5.07752 19.1698 4.81752 19.2698 4.56752 19.2698ZM21.7075 12.1298H21.6275C21.0775 12.1298 20.6275 11.6798 20.6275 11.1298C20.6275 10.5798 21.0775 10.1298 21.6275 10.1298C22.1775 10.1298 22.6675 10.5798 22.6675 11.1298C22.6675 11.6798 22.2575 12.1298 21.7075 12.1298ZM1.78752 12.1298H1.70752C1.15752 12.1298 0.70752 11.6798 0.70752 11.1298C0.70752 10.5798 1.15752 10.1298 1.70752 10.1298C2.25752 10.1298 2.74752 10.5798 2.74752 11.1298C2.74752 11.6798 2.33752 12.1298 1.78752 12.1298ZM18.7175 5.11976C18.4575 5.11976 18.2075 5.01976 18.0075 4.82976C17.9148 4.73725 17.8413 4.62736 17.7911 4.50638C17.7409 4.38541 17.7151 4.25573 17.7151 4.12476C17.7151 3.99379 17.7409 3.86411 17.7911 3.74314C17.8413 3.62216 17.9148 3.51227 18.0075 3.41976L18.1375 3.28976C18.2301 3.19718 18.34 3.12374 18.461 3.07363C18.5819 3.02353 18.7116 2.99774 18.8425 2.99774C18.9734 2.99774 19.1031 3.02353 19.2241 3.07363C19.345 3.12374 19.4549 3.19718 19.5475 3.28976C19.6401 3.38234 19.7135 3.49225 19.7636 3.61322C19.8138 3.73418 19.8395 3.86383 19.8395 3.99476C19.8395 4.12569 19.8138 4.25534 19.7636 4.3763C19.7135 4.49727 19.6401 4.60718 19.5475 4.69976L19.4175 4.82976C19.2275 5.01976 18.9775 5.11976 18.7175 5.11976ZM4.69752 5.11976C4.43752 5.11976 4.18752 5.01976 3.98752 4.82976L3.85752 4.68976C3.76494 4.59718 3.6915 4.48727 3.64139 4.3663C3.59129 4.24534 3.5655 4.11569 3.5655 3.98476C3.5655 3.85383 3.59129 3.72418 3.64139 3.60322C3.6915 3.48225 3.76494 3.37234 3.85752 3.27976C3.9501 3.18718 4.06001 3.11374 4.18098 3.06363C4.30194 3.01353 4.43159 2.98774 4.56252 2.98774C4.69345 2.98774 4.8231 3.01353 4.94406 3.06363C5.06503 3.11374 5.17494 3.18718 5.26752 3.27976L5.39752 3.40976C5.78752 3.79976 5.78752 4.42976 5.39752 4.81976C5.20752 5.01976 4.94752 5.11976 4.69752 5.11976ZM11.7075 2.16976C11.1575 2.16976 10.7075 1.75976 10.7075 1.20976V1.12976C10.7075 0.579761 11.1575 0.129761 11.7075 0.129761C12.2575 0.129761 12.7075 0.579761 12.7075 1.12976C12.7075 1.67976 12.2575 2.16976 11.7075 2.16976Z" fill="#FDB600"/>
</svg>
