<svg width="25" height="25" viewBox="0 0 25 25" fill="none" xmlns="http://www.w3.org/2000/svg">
<path fill-rule="evenodd" clip-rule="evenodd" d="M11.1653 20.2358C11.6833 20.8128 12.3483 21.1298 13.0383 21.1298H13.0393C13.7323 21.1298 14.4003 20.8128 14.9193 20.2348C15.0525 20.0869 15.2389 19.998 15.4376 19.9876C15.6363 19.9772 15.831 20.0461 15.9788 20.1793C16.1267 20.3124 16.2156 20.4988 16.226 20.6975C16.2364 20.8962 16.1675 21.0909 16.0343 21.2388C15.2263 22.1358 14.1643 22.6298 13.0393 22.6298H13.0373C11.9173 22.6288 10.8553 22.1348 10.0503 21.2378C9.98453 21.1645 9.9338 21.0791 9.90103 20.9863C9.86827 20.8935 9.8541 20.7951 9.85935 20.6968C9.8646 20.5985 9.88915 20.5022 9.93161 20.4134C9.97407 20.3246 10.0336 20.2451 10.1068 20.1793C10.18 20.1135 10.2655 20.0627 10.3583 20.03C10.4511 19.9972 10.5495 19.983 10.6478 19.9883C10.7461 19.9935 10.8424 20.0181 10.9312 20.0606C11.02 20.103 11.0995 20.1625 11.1653 20.2358ZM13.0883 1.12976C17.5333 1.12976 20.5193 4.59176 20.5193 7.82476C20.5193 9.48776 20.9423 10.1928 21.3913 10.9408C21.8353 11.6788 22.3383 12.5168 22.3383 14.1008C21.9893 18.1478 17.7643 18.4778 13.0883 18.4778C8.41232 18.4778 4.18632 18.1478 3.84132 14.1648C3.83832 12.5168 4.34132 11.6788 4.78532 10.9408L4.94232 10.6768C5.32832 10.0138 5.65732 9.29176 5.65732 7.82476C5.65732 4.59176 8.64332 1.12976 13.0883 1.12976ZM13.0883 2.62976C9.59332 2.62976 7.15832 5.36776 7.15832 7.82476C7.15832 9.90376 6.58032 10.8648 6.07032 11.7128C5.66132 12.3938 5.33832 12.9318 5.33832 14.1008C5.50532 15.9868 6.75032 16.9778 13.0883 16.9778C19.3913 16.9778 20.6753 15.9428 20.8413 14.0358C20.8383 12.9318 20.5153 12.3938 20.1063 11.7128C19.5963 10.8648 19.0193 9.90376 19.0193 7.82476C19.0193 5.36776 16.5833 2.62976 13.0893 2.62976H13.0883Z" fill="#1E1E2D"/>
</svg>
