<svg width="25" height="25" viewBox="0 0 25 25" fill="none" xmlns="http://www.w3.org/2000/svg">
<g opacity="0.8" clip-path="url(#clip0_102_338)">
<path d="M8.41748 5.84473C8.00748 5.84473 7.66748 5.50473 7.66748 5.09473V2.09473C7.66748 1.68473 8.00748 1.34473 8.41748 1.34473C8.82748 1.34473 9.16748 1.68473 9.16748 2.09473V5.09473C9.16748 5.50473 8.82748 5.84473 8.41748 5.84473Z" fill="#6F7181"/>
<path d="M16.4175 5.84473C16.0075 5.84473 15.6675 5.50473 15.6675 5.09473V2.09473C15.6675 1.68473 16.0075 1.34473 16.4175 1.34473C16.8275 1.34473 17.1675 1.68473 17.1675 2.09473V5.09473C17.1675 5.50473 16.8275 5.84473 16.4175 5.84473Z" fill="#6F7181"/>
<path d="M15.0975 22.8447H8.41748C4.76748 22.8447 2.66748 20.7447 2.66748 17.0947V8.59473C2.66748 4.94473 4.76748 2.84473 8.41748 2.84473H16.4175C20.0675 2.84473 22.1675 4.94473 22.1675 8.59473V13.7247C22.1675 14.0147 21.9975 14.2747 21.7475 14.4047C21.4875 14.5247 21.1775 14.4947 20.9575 14.3147C19.3775 13.0547 16.9475 13.0547 15.3675 14.3447C14.8361 14.7616 14.4075 15.2948 14.1145 15.9033C13.8215 16.5118 13.672 17.1794 13.6775 17.8547C13.6775 18.6747 13.8975 19.4747 14.3275 20.1647C14.6575 20.7047 15.0675 21.1547 15.5475 21.4947C15.8075 21.6847 15.9275 22.0247 15.8275 22.3347C15.7075 22.6347 15.4275 22.8447 15.0975 22.8447ZM8.41748 4.34473C5.55748 4.34473 4.16748 5.73473 4.16748 8.59473V17.0947C4.16748 19.9547 5.55748 21.3447 8.41748 21.3447H13.3075C13.2075 21.2147 13.1175 21.0747 13.0375 20.9347C12.4675 20.0147 12.1675 18.9447 12.1675 17.8447C12.1675 15.9947 12.9875 14.2947 14.4275 13.1647C16.1375 11.7747 18.6675 11.4747 20.6675 12.3947V8.59473C20.6675 5.73473 19.2775 4.34473 16.4175 4.34473H8.41748Z" fill="#6F7181"/>
<path d="M13.4175 11.8447H7.41748C7.00748 11.8447 6.66748 11.5047 6.66748 11.0947C6.66748 10.6847 7.00748 10.3447 7.41748 10.3447H13.4175C13.8275 10.3447 14.1675 10.6847 14.1675 11.0947C14.1675 11.5047 13.8275 11.8447 13.4175 11.8447Z" fill="#6F7181"/>
<path d="M10.0375 16.8447H7.41748C7.00748 16.8447 6.66748 16.5047 6.66748 16.0947C6.66748 15.6847 7.00748 15.3447 7.41748 15.3447H10.0375C10.2364 15.3447 10.4272 15.4237 10.5678 15.5644C10.7085 15.705 10.7875 15.8958 10.7875 16.0947C10.7875 16.2936 10.7085 16.4844 10.5678 16.6251C10.4272 16.7657 10.2364 16.8447 10.0375 16.8447Z" fill="#6F7181"/>
<path d="M18.1675 23.8447C17.134 23.8436 16.1183 23.5751 15.2194 23.0651C14.3204 22.5552 13.5687 21.8213 13.0375 20.9347C12.4675 20.0147 12.1675 18.9447 12.1675 17.8447C12.1675 15.9947 12.9875 14.2947 14.4275 13.1647C16.5075 11.4747 19.7875 11.4647 21.8875 13.1347C22.601 13.6944 23.1773 14.4097 23.5724 15.2259C23.9676 16.0422 24.1711 16.9379 24.1675 17.8447C24.1675 18.9447 23.8675 20.0147 23.2975 20.9347C22.9838 21.4747 22.5776 21.9553 22.0975 22.3547C21.0159 23.3188 19.6163 23.8494 18.1675 23.8447ZM18.1675 13.3447C17.1475 13.3447 16.1475 13.6947 15.3575 14.3347C14.8261 14.7516 14.3975 15.2848 14.1045 15.8933C13.8115 16.5018 13.662 17.1694 13.6675 17.8447C13.6675 18.6647 13.8875 19.4647 14.3175 20.1547C14.6475 20.6947 15.0575 21.1447 15.5375 21.4847C16.3075 22.0447 17.2175 22.3447 18.1675 22.3447C19.2775 22.3447 20.2975 21.9547 21.1175 21.2247C21.4775 20.9247 21.7675 20.5747 22.0075 20.1647C22.4375 19.4647 22.6675 18.6647 22.6675 17.8447C22.6675 16.4547 22.0475 15.1747 20.9575 14.3147C20.1575 13.6747 19.1975 13.3447 18.1675 13.3447Z" fill="#6F7181"/>
<path d="M18.1675 21.0947C17.7575 21.0947 17.4175 20.7547 17.4175 20.3447C17.4175 19.3847 16.6275 18.5947 15.6675 18.5947C15.2575 18.5947 14.9175 18.2547 14.9175 17.8447C14.9175 17.4347 15.2575 17.0947 15.6675 17.0947C16.6275 17.0947 17.4175 16.3047 17.4175 15.3447C17.4175 14.9347 17.7575 14.5947 18.1675 14.5947C18.5775 14.5947 18.9175 14.9347 18.9175 15.3447C18.9175 16.3047 19.7075 17.0947 20.6675 17.0947C21.0775 17.0947 21.4175 17.4347 21.4175 17.8447C21.4175 18.2547 21.0775 18.5947 20.6675 18.5947C19.7075 18.5947 18.9175 19.3847 18.9175 20.3447C18.9175 20.7547 18.5775 21.0947 18.1675 21.0947ZM17.7375 17.8447C17.8875 17.9747 18.0375 18.1147 18.1675 18.2747C18.2975 18.1247 18.4375 17.9747 18.5975 17.8447C18.4475 17.7147 18.2975 17.5747 18.1675 17.4147C18.0375 17.5747 17.8975 17.7147 17.7375 17.8447Z" fill="#6F7181"/>
</g>
<defs>
<clipPath id="clip0_102_338">
<rect width="24" height="24" fill="white" transform="translate(0.41748 0.0947266)"/>
</clipPath>
</defs>
</svg>
