<svg width="23" height="22" viewBox="0 0 23 22" fill="none" xmlns="http://www.w3.org/2000/svg">
<path d="M10.9038 20.75C5.25381 20.75 0.653809 16.15 0.653809 10.5C0.653809 4.85 5.25381 0.25 10.9038 0.25C16.5538 0.25 21.1538 4.85 21.1538 10.5C21.1538 16.15 16.5538 20.75 10.9038 20.75ZM10.9038 1.75C6.07381 1.75 2.15381 5.68 2.15381 10.5C2.15381 15.32 6.07381 19.25 10.9038 19.25C15.7338 19.25 19.6538 15.32 19.6538 10.5C19.6538 5.68 15.7338 1.75 10.9038 1.75Z" fill="#A1A2AF"/>
<path d="M21.404 21.75C21.214 21.75 21.024 21.68 20.874 21.53L18.874 19.53C18.7345 19.3889 18.6562 19.1984 18.6562 19C18.6562 18.8016 18.7345 18.6111 18.874 18.47C19.164 18.18 19.644 18.18 19.934 18.47L21.934 20.47C22.224 20.76 22.224 21.24 21.934 21.53C21.784 21.68 21.594 21.75 21.404 21.75Z" fill="#A1A2AF"/>
</svg>
