<svg width="25" height="25" viewBox="0 0 25 25" fill="none" xmlns="http://www.w3.org/2000/svg">
<g opacity="0.8">
<path d="M12.4175 15.8447C10.3475 15.8447 8.66748 14.1647 8.66748 12.0947C8.66748 10.0247 10.3475 8.34473 12.4175 8.34473C14.4875 8.34473 16.1675 10.0247 16.1675 12.0947C16.1675 14.1647 14.4875 15.8447 12.4175 15.8447ZM12.4175 9.84473C11.1775 9.84473 10.1675 10.8547 10.1675 12.0947C10.1675 13.3347 11.1775 14.3447 12.4175 14.3447C13.6575 14.3447 14.6675 13.3347 14.6675 12.0947C14.6675 10.8547 13.6575 9.84473 12.4175 9.84473Z" fill="#6F7181"/>
<path d="M15.6275 22.2847C15.4175 22.2847 15.2075 22.2547 14.9975 22.2047C14.3775 22.0347 13.8575 21.6447 13.5275 21.0947L13.4075 20.8947C12.8175 19.8747 12.0075 19.8747 11.4175 20.8947L11.3075 21.0847C10.9775 21.6447 10.4575 22.0447 9.83748 22.2047C9.20748 22.3747 8.55748 22.2847 8.00748 21.9547L6.28748 20.9647C5.98526 20.7916 5.72014 20.5605 5.50729 20.2848C5.29444 20.0091 5.13803 19.6941 5.04701 19.3579C4.95599 19.0217 4.93214 18.6708 4.97684 18.3254C5.02153 17.9799 5.13389 17.6467 5.30748 17.3447C5.59748 16.8347 5.67748 16.3747 5.50748 16.0847C5.33748 15.7947 4.90748 15.6247 4.31748 15.6247C2.85748 15.6247 1.66748 14.4347 1.66748 12.9747V11.2147C1.66748 9.75472 2.85748 8.56472 4.31748 8.56472C4.90748 8.56472 5.33748 8.39472 5.50748 8.10472C5.67748 7.81472 5.60748 7.35472 5.30748 6.84472C4.95748 6.23472 4.86748 5.51472 5.04748 4.83472C5.22748 4.14472 5.66748 3.57472 6.28748 3.22472L8.01748 2.23472C9.14748 1.56472 10.6375 1.95472 11.3175 3.10472L11.4375 3.30472C12.0275 4.32472 12.8375 4.32472 13.4275 3.30472L13.5375 3.11472C14.2175 1.95472 15.7075 1.56472 16.8475 2.24472L18.5675 3.23472C18.8697 3.40789 19.1348 3.63894 19.3477 3.91465C19.5605 4.19037 19.7169 4.50534 19.808 4.84156C19.899 5.17777 19.9228 5.52863 19.8781 5.87407C19.8334 6.21951 19.7211 6.55275 19.5475 6.85472C19.2575 7.36472 19.1775 7.82472 19.3475 8.11472C19.5175 8.40472 19.9475 8.57472 20.5375 8.57472C21.9975 8.57472 23.1875 9.76472 23.1875 11.2247V12.9847C23.1875 14.4447 21.9975 15.6347 20.5375 15.6347C19.9475 15.6347 19.5175 15.8047 19.3475 16.0947C19.1775 16.3847 19.2475 16.8447 19.5475 17.3547C19.8975 17.9647 19.9975 18.6847 19.8075 19.3647C19.7206 19.7031 19.5658 20.0202 19.3527 20.297C19.1395 20.5737 18.8724 20.8043 18.5675 20.9747L16.8375 21.9647C16.4575 22.1747 16.0475 22.2847 15.6275 22.2847ZM12.4175 18.5847C13.3075 18.5847 14.1375 19.1447 14.7075 20.1347L14.8175 20.3247C14.9375 20.5347 15.1375 20.6847 15.3775 20.7447C15.6175 20.8047 15.8575 20.7747 16.0575 20.6547L17.7875 19.6547C18.0515 19.5024 18.2448 19.2521 18.3253 18.9581C18.4058 18.6642 18.3671 18.3503 18.2175 18.0847C17.6475 17.1047 17.5775 16.0947 18.0175 15.3247C18.4575 14.5547 19.3675 14.1147 20.5075 14.1147C21.1475 14.1147 21.6575 13.6047 21.6575 12.9647V11.2047C21.6575 10.5747 21.1475 10.0547 20.5075 10.0547C19.3675 10.0547 18.4575 9.61472 18.0175 8.84472C17.5775 8.07472 17.6475 7.06472 18.2175 6.08472C18.3675 5.82472 18.4075 5.51472 18.3275 5.21472C18.2475 4.91472 18.0575 4.67472 17.7975 4.51472L16.0675 3.52472C15.9631 3.46353 15.8477 3.42351 15.7279 3.40698C15.608 3.39045 15.4861 3.39771 15.369 3.42836C15.252 3.45902 15.1421 3.51245 15.0458 3.58561C14.9494 3.65878 14.8685 3.75022 14.8075 3.85472L14.6975 4.04472C14.1275 5.03472 13.2975 5.59472 12.4075 5.59472C11.5175 5.59472 10.6875 5.03472 10.1175 4.04472L10.0075 3.84472C9.88321 3.64036 9.68409 3.49256 9.45249 3.43279C9.2209 3.37303 8.97512 3.40601 8.76748 3.52472L7.03748 4.52472C6.77346 4.67702 6.5802 4.92734 6.49968 5.22131C6.41917 5.51528 6.45791 5.82915 6.60748 6.09472C7.17748 7.07472 7.24748 8.08472 6.80748 8.85472C6.36748 9.62472 5.45748 10.0647 4.31748 10.0647C3.67748 10.0647 3.16748 10.5747 3.16748 11.2147V12.9747C3.16748 13.6047 3.67748 14.1247 4.31748 14.1247C5.45748 14.1247 6.36748 14.5647 6.80748 15.3347C7.24748 16.1047 7.17748 17.1147 6.60748 18.0947C6.45748 18.3547 6.41748 18.6647 6.49748 18.9647C6.57748 19.2647 6.76748 19.5047 7.02748 19.6647L8.75748 20.6547C8.96748 20.7847 9.21748 20.8147 9.44748 20.7547C9.68748 20.6947 9.88748 20.5347 10.0175 20.3247L10.1275 20.1347C10.6975 19.1547 11.5275 18.5847 12.4175 18.5847Z" fill="#6F7181"/>
</g>
</svg>
