<svg width="25" height="25" viewBox="0 0 25 25" fill="none" xmlns="http://www.w3.org/2000/svg">
<g opacity="0.8">
<path d="M5.6175 10.5547C5.4275 10.5547 5.2275 10.4747 5.0875 10.3347C4.98331 10.2288 4.91258 10.0946 4.88413 9.9488C4.85568 9.80299 4.87076 9.65203 4.9275 9.51473L6.7875 5.07473C6.8275 4.98473 6.8475 4.92473 6.8775 4.87473C8.3575 1.46473 10.2475 0.634726 13.5875 1.91473C13.7775 1.98473 13.9275 2.13473 14.0075 2.32473C14.0875 2.51473 14.0875 2.72473 14.0075 2.91473L11.0775 9.71473C10.9575 9.99473 10.6875 10.1647 10.3875 10.1647H7.5375C6.9675 10.1647 6.4275 10.2747 5.9075 10.4947C5.81749 10.5347 5.7175 10.5547 5.6175 10.5547ZM11.0275 2.84473C9.78749 2.84473 9.0275 3.65473 8.2375 5.49473C8.2275 5.52473 8.2075 5.55473 8.1975 5.58473L6.8875 8.69473C7.1075 8.67473 7.3175 8.66473 7.5375 8.66473H9.8875L12.2975 3.06473C11.8275 2.91473 11.4075 2.84473 11.0275 2.84473Z" fill="#6F7181"/>
<path d="M18.7077 10.3647C18.6377 10.3647 18.5577 10.3547 18.4877 10.3347C18.1077 10.2247 17.7077 10.1647 17.2877 10.1647H10.3877C10.1377 10.1647 9.89774 10.0347 9.75774 9.82473C9.69175 9.71978 9.65187 9.60055 9.64143 9.47702C9.63099 9.35349 9.6503 9.22926 9.69774 9.11473L12.5977 2.38473C12.7477 2.02473 13.1877 1.77473 13.5577 1.90473C13.6777 1.94473 13.7877 1.99473 13.9077 2.04473L16.2677 3.03473C17.6477 3.60473 18.5677 4.20473 19.1677 4.92473C19.2877 5.06473 19.3877 5.21473 19.4877 5.37473C19.5977 5.54473 19.6977 5.74473 19.7677 5.95473C19.7977 6.02473 19.8477 6.15473 19.8777 6.29473C20.1577 7.24473 20.0177 8.40473 19.4177 9.90473C19.3552 10.0408 19.2552 10.1563 19.1295 10.2378C19.0038 10.3192 18.8575 10.3633 18.7077 10.3647ZM11.5277 8.66473H17.2977C17.6177 8.66473 17.9277 8.69473 18.2377 8.74473C18.5177 7.87473 18.5777 7.20473 18.4177 6.66473C18.3977 6.57473 18.3777 6.53473 18.3677 6.49473C18.3077 6.33473 18.2677 6.24473 18.2177 6.16473C18.1477 6.05473 18.0977 5.96473 18.0177 5.87473C17.5877 5.35473 16.8277 4.87473 15.6877 4.40473L13.7177 3.58473L11.5277 8.66473Z" fill="#6F7181"/>
<path d="M16.3175 22.8447H8.51748C8.23748 22.8447 7.97748 22.8247 7.71748 22.7947C4.20748 22.5647 2.20748 20.5547 1.96748 17.0047C1.93748 16.7847 1.91748 16.5147 1.91748 16.2447V14.2947C1.91748 12.0447 3.25748 10.0147 5.32748 9.11473C6.03748 8.81473 6.77748 8.66473 7.54748 8.66473H17.3075C17.8775 8.66473 18.4275 8.74473 18.9375 8.90473C21.2875 9.61473 22.9375 11.8347 22.9375 14.2947V16.2447C22.9375 16.4647 22.9275 16.6747 22.9175 16.8747C22.6975 20.7847 20.4175 22.8447 16.3175 22.8447ZM7.53748 10.1647C6.96748 10.1647 6.42748 10.2747 5.90748 10.4947C4.38748 11.1547 3.40748 12.6447 3.40748 14.2947V16.2447C3.40748 16.4547 3.42748 16.6647 3.44748 16.8647C3.63748 19.7147 5.03748 21.1147 7.84748 21.3047C8.09748 21.3347 8.29748 21.3547 8.50748 21.3547H16.3075C19.6075 21.3547 21.2275 19.9047 21.3875 16.8047C21.3975 16.6247 21.4075 16.4447 21.4075 16.2447V14.2947C21.4075 12.4847 20.1975 10.8647 18.4775 10.3347C18.0975 10.2247 17.6975 10.1647 17.2775 10.1647H7.53748Z" fill="#6F7181"/>
<path d="M2.65771 15.0447C2.24771 15.0447 1.90771 14.7047 1.90771 14.2947V11.3647C1.90771 8.21473 4.13772 5.49473 7.21772 4.89473C7.48772 4.84473 7.76771 4.94473 7.94771 5.15473C8.11771 5.36473 8.16771 5.66473 8.05771 5.91473L6.30771 10.0947C6.23001 10.2706 6.09156 10.4126 5.91772 10.4947C4.39772 11.1547 3.41771 12.6447 3.41771 14.2947C3.40771 14.7047 3.07771 15.0447 2.65771 15.0447ZM6.01771 6.91473C5.37716 7.27585 4.82216 7.77107 4.39068 8.36651C3.9592 8.96195 3.66142 9.64357 3.51771 10.3647C3.95771 9.91473 4.46772 9.53473 5.04771 9.25473L6.01771 6.91473Z" fill="#6F7181"/>
<path d="M22.1776 15.0447C21.7676 15.0447 21.4276 14.7047 21.4276 14.2947C21.4276 12.4847 20.2176 10.8647 18.4976 10.3347C18.3983 10.3054 18.3062 10.2556 18.2272 10.1887C18.1482 10.1217 18.0841 10.039 18.0389 9.94578C17.9937 9.85259 17.9685 9.751 17.9648 9.6475C17.9612 9.544 17.9791 9.44087 18.0176 9.34473C18.4876 8.17473 18.6076 7.32473 18.4176 6.66473C18.3976 6.57473 18.3776 6.53473 18.3676 6.49473C18.3048 6.35282 18.2874 6.19495 18.3178 6.04277C18.3483 5.89058 18.425 5.75155 18.5376 5.64473C18.7676 5.42473 19.1176 5.37473 19.3976 5.52473C20.4645 6.08144 21.3579 6.92052 21.9804 7.95039C22.603 8.98026 22.9306 10.1613 22.9276 11.3647V14.2947C22.9276 14.7047 22.5876 15.0447 22.1776 15.0447ZM19.6676 9.18473C20.2976 9.47473 20.8576 9.88473 21.3276 10.3747C21.1376 9.39473 20.6676 8.50473 19.9776 7.80473C19.9276 8.22473 19.8276 8.68473 19.6676 9.18473Z" fill="#6F7181"/>
</g>
</svg>
